<?xml version="1.0" encoding="UTF-8"?>
<svg xmlns="http://www.w3.org/2000/svg" viewBox="0 0 32 32" width="32" height="32">
  <circle cx="16" cy="16" r="15" fill="#0a0a0f"/>
  <path d="M16 6c-4 0-7 3-7 7 0 2 1 4 2 5l3 6h4l3-6c1-1 2-3 2-5 0-4-3-7-7-7z" fill="#6c63ff" opacity="0.9"/>
  <path d="M12 13c0-1 1-2 2-2s2 1 2 2-1 2-2 2-2-1-2-2z" fill="#fff" opacity="0.3"/>
  <path d="M18 13c0-1 1-2 2-2s2 1 2 2-1 2-2 2-2-1-2-2z" fill="#fff" opacity="0.3"/>
  <path d="M14 18h4v1h-4z" fill="#fff" opacity="0.2"/>
</svg>